<?xml version="1.0" standalone="no"?>
<!DOCTYPE svg PUBLIC "-//W3C//DTD SVG 20010904//EN"
 "http://www.w3.org/TR/2001/REC-SVG-20010904/DTD/svg10.dtd">
<svg version="1.0" xmlns="http://www.w3.org/2000/svg"
 width="980.000000pt" height="980.000000pt" viewBox="0 0 980.000000 980.000000"
 preserveAspectRatio="xMidYMid meet">
<metadata>
Created by potrace 1.14, written by Peter Selinger 2001-2017
</metadata>
<g transform="translate(0.000000,980.000000) scale(0.100000,-0.100000)"
fill="#000000" stroke="none">
<path d="M4500 9789 c-925 -80 -1777 -399 -2513 -942 -364 -268 -741 -643
-1020 -1014 -475 -632 -795 -1398 -916 -2196 -69 -450 -69 -1024 0 -1474 135
-892 500 -1701 1083 -2408 124 -151 464 -491 616 -616 800 -663 1726 -1041
2765 -1129 155 -13 615 -13 770 0 1040 88 1964 465 2765 1129 148 122 489 463
611 611 664 801 1041 1725 1129 2765 13 155 13 615 0 770 -54 637 -209 1207
-479 1760 -179 367 -379 678 -645 1000 -127 154 -467 494 -621 621 -801 661
-1722 1036 -2760 1124 -139 11 -646 11 -785 -1z m-65 -2234 c114 -29 224 -129
262 -240 17 -46 18 -120 18 -990 0 -870 -1 -944 -18 -990 -38 -111 -148 -211
-262 -240 -89 -23 -1921 -23 -2010 0 -114 29 -224 129 -262 240 -17 46 -18
120 -18 990 0 870 1 944 18 990 38 108 147 210 257 239 84 22 1928 23 2015 1z
m2850 0 c114 -29 224 -129 262 -240 17 -46 18 -120 18 -995 l0 -945 -24 -60
c-17 -42 -42 -78 -85 -121 -43 -43 -79 -68 -121 -85 l-60 -24 -959 -3 c-624
-2 -978 1 -1014 8 -155 28 -272 147 -301 304 -15 83 -15 1779 0 1862 21 115
100 223 197 270 89 43 86 43 1077 43 821 1 959 -1 1010 -14z m-2850 -2850
c114 -29 224 -129 262 -240 17 -46 18 -120 18 -995 l0 -945 -24 -60 c-33 -82
-124 -173 -206 -206 l-60 -24 -995 0 -995 0 -60 24 c-82 33 -173 124 -206 206
l-24 60 0 945 c0 875 1 949 18 995 38 108 147 210 257 239 84 22 1928 23 2015
1z m2850 0 c114 -29 224 -129 262 -240 17 -46 18 -120 18 -995 l0 -945 -24
-60 c-33 -82 -124 -173 -206 -206 l-60 -24 -995 0 -995 0 -60 24 c-71 29 -160
112 -193 182 -13 26 -27 73 -32 105 -14 85 -13 1783 1 1860 21 115 100 223
197 270 89 43 86 43 1077 43 821 1 959 -1 1010 -14z"/>
<path d="M2705 6496 c-65 -29 -105 -94 -105 -171 0 -80 33 -133 105 -166 38
-17 81 -19 731 -19 490 0 701 3 725 11 19 7 47 23 63 38 89 81 70 243 -34 298
l-43 23 -706 0 c-568 -1 -712 -3 -736 -14z"/>
<path d="M6245 7146 c-41 -19 -83 -66 -95 -107 -6 -18 -10 -145 -10 -281 l0
-247 -273 -3 -274 -3 -36 -28 c-53 -40 -71 -80 -71 -154 0 -50 6 -69 27 -102
49 -74 58 -76 360 -79 l267 -3 0 -257 c0 -247 1 -260 23 -302 52 -105 197
-133 284 -57 60 53 63 67 63 357 l0 260 248 0 c141 0 263 5 285 11 150 41 166
275 23 340 -37 17 -69 19 -298 19 l-258 0 0 258 c0 252 -1 260 -23 303 -31 59
-84 89 -157 88 -30 0 -68 -6 -85 -13z"/>
<path d="M2926 4175 c-55 -19 -87 -45 -113 -91 -25 -43 -31 -123 -13 -170 6
-15 90 -108 188 -206 l176 -178 -170 -173 c-94 -94 -179 -183 -188 -197 -10
-16 -16 -46 -16 -84 0 -117 79 -196 196 -196 38 0 68 6 84 16 14 9 103 94 197
188 l173 170 178 -176 c98 -98 191 -182 206 -188 15 -5 51 -10 80 -10 122 0
217 123 186 242 -10 36 -39 71 -193 225 l-181 183 181 182 c99 101 183 192
186 203 15 58 16 79 5 122 -25 102 -139 170 -239 143 -37 -10 -72 -40 -227
-193 l-182 -181 -183 181 c-147 146 -190 183 -222 192 -50 14 -61 13 -109 -4z"/>
<path d="M5571 3993 c-72 -36 -109 -143 -77 -228 18 -47 72 -101 109 -110 12
-3 345 -4 739 -3 706 3 717 3 744 24 109 81 106 236 -5 311 l-34 23 -721 0
c-650 0 -724 -2 -755 -17z"/>
<path d="M5605 3381 c-56 -23 -110 -109 -121 -194 -15 -109 66 -239 156 -252
25 -3 349 -5 721 -3 l676 3 37 29 c128 97 113 340 -25 411 -24 13 -132 15
-726 14 -384 0 -707 -4 -718 -8z"/>
</g>
</svg>
